<svg xmlns="http://www.w3.org/2000/svg" viewBox="0 0 463.002 463.002" width="512" height="512"><g fill="#FFF"><path d="M445.555 275.073a7.497 7.497 0 0 0-6.054-3.073h-9.241c.053-.897.111-1.811.169-2.737.804-12.812 1.803-28.757-5.051-43.62-7.195-15.603-21.293-26.561-42.928-33.364 11.961-33.758.012-64.021-12.775-84.054-20.275-31.767-53.505-54.899-75.091-59.408C291.271 21.356 267.84 0 239.501 0c-30.603 0-55.5 24.897-55.5 55.5 0 11.76 3.808 23.136 10.567 32.507-9.87.687-19.77 1.133-29.211 1.558-18.804.845-36.564 1.643-49.67 4.16-3.616.694-11.299 2.176-17.473 6.059a7.538 7.538 0 0 0-1.088.483c-14.93 8.241-28.546 32.381-33.113 58.703-3.296 18.992-1.196 35.455 5.857 47.33-10.113 8.409-28.602 25.112-30.652 65.7H23.501a7.5 7.5 0 0 0-7.147 9.774l50.679 159.277C71.21 454.18 83.273 463 97.05 463h14.422l.023.002.035-.002h31.941l.021.001.014-.001h175.991l.014.001.021-.001h31.941l.035.002.023-.002h14.422c13.776 0 25.84-8.82 30.017-21.948l50.679-159.277a7.505 7.505 0 0 0-1.094-6.702zM199.001 55.5c0-22.332 18.168-40.5 40.5-40.5 21.993 0 39.935 17.624 40.474 39.489-6.338 20.348-34.62 28.232-66.717 31.852-9.091-7.714-14.257-18.801-14.257-30.841zm-80.484 52.955c12.037-2.312 29.27-3.086 47.515-3.906 49.541-2.227 110.554-4.975 126.484-40.845 6.33 1.514 15.837 5.632 27.216 13.723 14.749 10.486 27.996 24.29 37.301 38.868 11.07 17.344 21.483 43.528 10.84 72.195-15.695-3.45-37.777-7.092-62.857-11.228-42.152-6.95-94.614-15.601-135.224-26.7-19.736-5.395-65.643-19.663-65.643-35.608 0-1.725 3.763-4.463 14.368-6.499zm-39.724 53.079c2.229-12.848 7.271-25.707 13.286-35.135 16.582 31.205 102.115 47.794 210.498 65.665 28.318 4.669 52.774 8.702 67.981 12.445 48.158 11.857 46.428 39.461 44.9 63.815-.078 1.25-.152 2.47-.221 3.676H215.045c-5.702-2.272-29.313-11.805-55.14-24.025-38.485-18.21-64.191-33.918-74.341-45.425-7.376-8.362-9.843-23.312-6.771-41.016zM150.048 448l-21.955-161h40.241l7.318 161h-25.604zm-32.56 0L80.897 287h32.057l21.955 161h-17.421zm65.862-161h30.219l.042.002.026-.002h10.364v161h-33.333l-7.318-161zM79.579 217.735c20.914 18.895 65.374 40.4 96.785 54.265H54.223c1.841-33.718 16.034-46.525 25.356-54.265zm1.747 218.768L33.758 287h31.756l36.591 161H97.05a16.443 16.443 0 0 1-15.724-11.497zm300.35 0A16.443 16.443 0 0 1 365.952 448h-5.055l25.191-110.841a7.5 7.5 0 0 0-5.651-8.976c-4.035-.913-8.058 1.613-8.976 5.651L345.514 448h-17.421l10.839-79.488a7.5 7.5 0 0 0-6.418-8.445 7.495 7.495 0 0 0-8.445 6.418L312.954 448H287.35l2.189-48.163a7.5 7.5 0 0 0-7.151-7.833c-4.142-.15-7.646 3.014-7.833 7.151L272.334 448h-33.333V287h40.651l-3.644 80.159a7.5 7.5 0 0 0 14.984.682L294.668 287h40.241l-6.475 47.483a7.5 7.5 0 0 0 14.863 2.027l6.751-49.51h32.057l-3.372 14.838a7.5 7.5 0 1 0 14.627 3.324L397.488 287h31.756l-47.568 149.503z"/><path d="M239.501 32c-4.143 0-7.5 3.357-7.5 7.5s3.357 7.5 7.5 7.5c4.687 0 8.5 3.813 8.5 8.5 0 4.143 3.357 7.5 7.5 7.5s7.5-3.357 7.5-7.5c0-12.958-10.542-23.5-23.5-23.5zM254.373 214.915c5.553.844 10.875 1.662 15.977 2.457a7.504 7.504 0 0 0 8.565-6.257 7.5 7.5 0 0 0-6.257-8.565 4829.902 4829.902 0 0 0-16.029-2.465c-4.091-.614-7.92 2.191-8.543 6.287a7.5 7.5 0 0 0 6.287 8.543zM302.261 222.516c79.706 13.399 80.696 19.34 81.842 26.218a7.503 7.503 0 0 0 8.632 6.165 7.502 7.502 0 0 0 6.165-8.632c-1.512-9.064-5.316-15.855-19.595-21.692-12.572-5.14-34.87-10.179-74.558-16.852a7.5 7.5 0 1 0-2.486 14.793zM299.205 101.648a111.07 111.07 0 0 1 9.571 7.479 7.475 7.475 0 0 0 4.94 1.859 7.501 7.501 0 0 0 4.947-13.141 126.315 126.315 0 0 0-10.866-8.494 7.502 7.502 0 0 0-8.592 12.297zM336.001 159.5c0 4.143 3.357 7.5 7.5 7.5s7.5-3.357 7.5-7.5c0-3.986-.779-18.345-10.802-35.755a7.501 7.501 0 0 0-13 7.484c8.555 14.86 8.802 26.942 8.802 28.271z"/></g></svg>