<svg xmlns="http://www.w3.org/2000/svg" width="512" height="512" viewBox="0 0 380.721 380.722"><g fill="#FFF"><path d="M129.194 195.246c.25-4.072.5-8.15 1.034-12.269.987-9.766 3.108-19.572 5.275-29.111a327.39 327.39 0 0 1 4.247-14.053c1.917-4.485 3.793-8.946 5.664-13.303 4.235-8.505 8.97-16.452 14.622-23.104 1.342-1.714 2.672-3.375 3.974-5.042 1.487-1.487 2.975-2.928 4.409-4.369 3.027-2.736 5.652-5.699 8.674-7.872 6.023-4.461 11.352-8.702 16.777-11.328 5.229-2.917 9.713-5.449 13.756-6.878 7.924-3.189 12.421-4.792 12.421-4.792s-3.835 3.044-10.538 7.982c-3.463 2.26-7.134 5.827-11.503 9.481-4.555 3.485-8.679 8.481-13.582 13.269-2.452 2.446-4.356 5.519-6.675 8.348a357.146 357.146 0 0 1-3.475 4.369c-.964 1.627-1.963 3.259-2.974 4.926-4.328 6.414-7.563 13.943-10.934 21.582-1.383 3.997-2.782 8.052-4.212 12.147a308.836 308.836 0 0 1-3.235 12.85c-1.772 8.812-3.509 17.8-4.259 27.042-.522 3.352-.772 6.733-1.086 10.137 73.436.012 130.274.058 209.805.058.267-3.486.418-7.018.418-10.567 0-66.981-48.811-122.147-111.621-129.455 4.055-3.793 6.623-9.173 6.623-15.157.023-11.502-9.295-20.809-20.774-20.809-11.491 0-20.82 9.307-20.82 20.809 0 5.996 2.556 11.363 6.622 15.157-62.805 7.308-111.603 62.474-111.603 129.455 0 3.538.127 7.023.389 10.498l22.581-.001zM83.329 202.995h297.392v26.236H83.329zM258.631 247.855c-15.115 7.343-67.818 26.351-67.818 26.351l-62.299-3.903s35.635-9.911 49.449-13.013c13.838-3.091 7.819-18.694.168-18.694-7.65 0-74.324 2.753-74.324 2.753L59.534 257.29l11.717 74.162s9.115-15.604 18.207-15.604c9.126 0 88.174 2.103 98.904 0 10.736-2.127 76.126-46.859 83.957-52.076 7.796-5.193 1.486-23.271-13.688-15.917zM0 265.261v96.133l67.83-12.7-16.969-92.381z"/></g></svg>