<svg width="32" height="32" viewBox="0 0 32 32" xmlns="http://www.w3.org/2000/svg"><title>DJLines</title><g fill="#FFF" fill-rule="evenodd"><path d="M1.94 21.624c-.887 0-1.607-.72-1.607-1.607v-8.034a1.607 1.607 0 0 1 3.214 0v8.034c0 .887-.72 1.607-1.607 1.607zM6.627 25.641c-.888 0-1.607-.719-1.607-1.606V7.965a1.607 1.607 0 0 1 3.213 0v16.07c.001.887-.719 1.606-1.606 1.606zM11.313 23.632c-.887 0-1.606-.72-1.606-1.607V9.975a1.607 1.607 0 0 1 3.214 0v12.05c-.001.888-.72 1.607-1.608 1.607zM16 27.65c-.887 0-1.607-.72-1.607-1.607V5.957a1.607 1.607 0 0 1 3.214 0v20.086c0 .888-.72 1.607-1.607 1.607zM20.687 31.667c-.888 0-1.608-.72-1.608-1.607V1.94a1.607 1.607 0 0 1 3.214 0v28.12c0 .887-.719 1.607-1.606 1.607zM25.373 25.641c-.887 0-1.606-.719-1.606-1.606V7.965a1.607 1.607 0 0 1 3.213 0v16.07c0 .887-.72 1.606-1.607 1.606zM30.06 19.615c-.887 0-1.607-.719-1.607-1.606v-4.017a1.607 1.607 0 0 1 3.214 0v4.017c0 .887-.72 1.606-1.607 1.606z"/></g></svg>