<svg width="25" height="32" viewBox="0 0 25 32" xmlns="http://www.w3.org/2000/svg"><title>GabeDropPin</title><g fill="none" fill-rule="evenodd"><path d="M25 11.81C25 5.288 19.404 0 12.5 0S0 5.288 0 11.81c0 6.523 6.986 14.924 12.5 20.125C18.033 26.734 25 18.333 25 11.81z" fill="#000"/><g transform="rotate(43 2.27 17.032)"><ellipse fill="#FFF" cx="5.924" cy="5.963" rx="5.924" ry="5.963"/><ellipse fill="#000" cx="5.924" cy="4.174" rx=".592" ry=".596"/><ellipse fill="#000" cx="5.924" cy="5.963" rx=".592" ry=".596"/><ellipse fill="#000" cx="5.924" cy="7.752" rx=".592" ry=".596"/><ellipse fill="#000" cx="7.464" cy="5.963" rx=".592" ry=".596"/><ellipse fill="#000" cx="7.464" cy="7.752" rx=".592" ry=".596"/><ellipse fill="#000" cx="4.384" cy="5.963" rx=".592" ry=".596"/><ellipse fill="#000" cx="4.384" cy="7.752" rx=".592" ry=".596"/><ellipse fill="#000" cx="7.464" cy="4.174" rx=".592" ry=".596"/><ellipse fill="#000" cx="4.384" cy="4.174" rx=".592" ry=".596"/></g></g></svg>