<svg xmlns="http://www.w3.org/2000/svg" viewBox="0 0 470 470" width="512" height="512"><g fill="#FFF"><path d="M146.378 62.473c.078.16.154.321.244.477.094.162.198.314.301.467l81.582 141.318a7.5 7.5 0 0 0 12.991 0L338.23 37.206a7.501 7.501 0 0 0-2.745-10.246C304.94 9.323 270.255 0 235.181 0c-35.28 0-70.088 9.309-100.66 26.919a7.5 7.5 0 0 0-2.752 10.248l14.609 25.306zM235 185.986L163.495 62.122c44.787-22.982 98.307-22.972 143.011.028L235 185.986zM235.181 15c29.956 0 59.612 7.355 86.234 21.331l-7.399 12.815c-49.343-25.652-108.602-25.663-158.029-.029l-7.398-12.815A186.948 186.948 0 0 1 235.181 15z"/><circle cx="235" cy="131.926" r="7.499"/><path d="M259.904 79.314c-1.782-6.652-6.048-12.212-12.012-15.656a25.786 25.786 0 0 0-12.875-3.458c-9.191 0-17.753 4.94-22.345 12.893-3.444 5.964-4.359 12.912-2.577 19.564 1.782 6.652 6.048 12.212 12.012 15.656a25.786 25.786 0 0 0 12.875 3.458c9.191 0 17.753-4.94 22.345-12.893 3.444-5.963 4.36-12.911 2.577-19.564zm-15.567 12.064a10.828 10.828 0 0 1-9.355 5.394c-1.875 0-3.734-.5-5.374-1.448a10.717 10.717 0 0 1-5.024-6.547 10.714 10.714 0 0 1 1.078-8.182 10.828 10.828 0 0 1 9.355-5.394c1.875 0 3.734.5 5.374 1.448a10.717 10.717 0 0 1 5.024 6.547 10.706 10.706 0 0 1-1.078 8.182zM12.057 225.484l29.213.001c.18.013.359.028.542.028.193 0 .376-.015.559-.028l163.172.008a7.5 7.5 0 0 0 6.496-11.25L115.32 46.703a7.502 7.502 0 0 0-10.245-2.746C73.984 61.905 48.26 87.821 30.684 118.902c-17.059 30.166-26.093 64.425-26.127 99.075a7.499 7.499 0 0 0 7.5 7.507zM106.155 60.83l7.396 12.811a170.379 170.379 0 0 0-33.594 28.103 7.5 7.5 0 0 0 11.022 10.174 155.47 155.47 0 0 1 30.082-25.267l71.492 123.843-143.021-.007c1.326-26.819 9.551-52.894 24.026-75.837a7.5 7.5 0 0 0-2.341-10.345 7.499 7.499 0 0 0-10.345 2.341c-15.99 25.343-25.023 54.184-26.359 83.84l-14.795-.001c2.533-60.88 35.008-117.106 86.437-149.655z"/><circle cx="72.762" cy="191.213" r="7.499"/><circle cx="138.265" cy="190.213" r="7.499"/><path d="M130.445 397.065l81.593-141.308a7.499 7.499 0 0 0-6.495-11.25l-193.453-.009a7.503 7.503 0 0 0-7.501 7.499c-.001 35.9 9.58 71.135 27.709 101.897 17.595 29.856 42.747 54.81 72.738 72.164a7.504 7.504 0 0 0 10.252-2.741l14.677-25.419c.074-.113.157-.217.226-.336.094-.163.174-.33.254-.497zm-9.409-13.701c-42.296-27.295-69.048-73.65-71.481-123.865l142.998.007-71.517 123.858zm-14.909 25.819c-51.456-32.634-83.912-88.871-86.386-149.685l14.796.001c2.456 55.557 32.076 106.883 78.989 136.87l-7.399 12.814z"/><circle cx="149.765" cy="295.76" r="7.5"/><path d="M323.622 407.527c-.078-.16-.154-.321-.244-.477-.094-.163-.198-.315-.302-.468l-81.581-141.317a7.5 7.5 0 0 0-12.991 0L131.77 432.794a7.501 7.501 0 0 0 2.745 10.246c30.543 17.636 65.228 26.958 100.305 26.96 35.282 0 70.089-9.309 100.66-26.919a7.5 7.5 0 0 0 2.752-10.248l-14.61-25.306zM234.828 455c-29.966-.001-59.622-7.356-86.242-21.331l7.395-12.807c19.691 10.256 40.963 16.494 63.352 18.536a7.501 7.501 0 0 0 1.362-14.938c-20.208-1.843-39.415-7.425-57.208-16.597L235 284.014l71.513 123.877c-17.802 9.152-36.999 14.725-57.182 16.569a7.5 7.5 0 0 0-6.787 8.151 7.5 7.5 0 0 0 8.151 6.786c22.362-2.042 43.624-8.27 63.323-18.505l7.393 12.807A186.938 186.938 0 0 1 234.828 455z"/><circle cx="230.5" cy="330.574" r="7.499"/><path d="M463.249 246.715a7.5 7.5 0 0 0-5.306-2.199l-29.213-.001c-.18-.013-.359-.028-.542-.028-.193 0-.376.015-.559.028l-163.172-.008a7.5 7.5 0 0 0-6.496 11.25l96.718 167.541a7.502 7.502 0 0 0 10.245 2.747c31.091-17.949 56.815-43.864 74.391-74.945 17.059-30.166 26.093-64.425 26.127-99.075a7.497 7.497 0 0 0-2.193-5.31zM363.845 409.17l-7.391-12.803c29.306-18.724 52.616-46.459 66.074-78.821a7.5 7.5 0 0 0-4.045-9.805 7.501 7.501 0 0 0-9.805 4.045c-12.2 29.335-33.26 54.497-59.734 71.573l-71.498-123.853 143.033.007a156.592 156.592 0 0 1-3.277 24.92 7.5 7.5 0 0 0 7.341 9.073 7.502 7.502 0 0 0 7.326-5.93 171.608 171.608 0 0 0 3.621-28.063l14.792.001c-2.533 60.881-35.008 117.107-86.437 149.656z"/><circle cx="318.687" cy="284.374" r="7.499"/><circle cx="354.096" cy="353.074" r="7.499"/><circle cx="354.096" cy="116.307" r="7.5"/><path d="M339.555 72.935l-81.593 141.308a7.499 7.499 0 0 0 6.495 11.25l193.454.009a7.503 7.503 0 0 0 7.501-7.499c.001-35.9-9.58-71.135-27.709-101.897-17.595-29.856-42.747-54.81-72.738-72.164a7.497 7.497 0 0 0-10.252 2.741l-14.61 25.302c-.1.148-.202.295-.293.452-.095.164-.175.331-.255.498zm9.409 13.701c42.296 27.295 69.048 73.65 71.481 123.865l-142.998-.007 71.517-123.858zm14.909-25.819c51.456 32.634 83.912 88.871 86.386 149.685l-14.796-.001c-2.456-55.557-32.076-106.883-78.989-136.87l7.399-12.814zM105.968 186.278a25.78 25.78 0 0 0 12.873-3.457c5.964-3.443 10.23-9.002 12.013-15.655 1.783-6.652.868-13.6-2.575-19.564-4.592-7.954-13.154-12.896-22.346-12.896a25.78 25.78 0 0 0-12.873 3.457c-5.964 3.443-10.231 9.002-12.014 15.655-1.783 6.652-.868 13.6 2.575 19.564 4.592 7.955 13.155 12.896 22.347 12.896zm-10.433-28.576a10.714 10.714 0 0 1 5.024-6.547 10.766 10.766 0 0 1 5.374-1.447c3.85 0 7.435 2.067 9.355 5.395a10.714 10.714 0 0 1 1.077 8.182 10.714 10.714 0 0 1-5.024 6.547 10.766 10.766 0 0 1-5.374 1.447c-3.85 0-7.435-2.067-9.356-5.395a10.72 10.72 0 0 1-1.076-8.182zM87.718 327.737c4.87 4.87 11.344 7.552 18.231 7.553 14.216 0 25.782-11.565 25.783-25.781 0-6.887-2.681-13.361-7.55-18.231-4.87-4.87-11.344-7.552-18.232-7.552-14.216 0-25.782 11.565-25.782 25.781-.001 6.886 2.681 13.36 7.55 18.23zm18.233-29.012c2.88 0 5.588 1.122 7.625 3.158a10.71 10.71 0 0 1 3.157 7.625c0 5.945-4.837 10.782-10.782 10.782l-.001 7.5v-7.5a10.71 10.71 0 0 1-7.624-3.159 10.712 10.712 0 0 1-3.158-7.625c0-5.945 4.837-10.781 10.783-10.781zM257.328 396.906c3.444-5.964 4.359-12.912 2.577-19.564-1.782-6.652-6.048-12.212-12.012-15.656a25.786 25.786 0 0 0-12.875-3.458c-9.191 0-17.753 4.94-22.345 12.893-3.444 5.963-4.359 12.912-2.577 19.564 1.782 6.652 6.048 12.212 12.012 15.656a25.786 25.786 0 0 0 12.875 3.458c9.19 0 17.752-4.94 22.345-12.893zm-12.991-7.5a10.828 10.828 0 0 1-9.355 5.394c-1.875 0-3.734-.5-5.374-1.448a10.717 10.717 0 0 1-5.024-6.547 10.714 10.714 0 0 1 1.078-8.182 10.828 10.828 0 0 1 9.355-5.394c1.875 0 3.734.5 5.374 1.448a10.717 10.717 0 0 1 5.024 6.547 10.707 10.707 0 0 1-1.078 8.182zM364.032 283.722a25.78 25.78 0 0 0-12.873 3.457c-5.964 3.443-10.23 9.002-12.013 15.655-1.783 6.652-.868 13.6 2.575 19.564 4.592 7.954 13.154 12.896 22.346 12.896a25.78 25.78 0 0 0 12.873-3.457c5.964-3.443 10.231-9.002 12.014-15.655 1.783-6.652.868-13.6-2.575-19.564-4.592-7.955-13.155-12.896-22.347-12.896zm10.433 28.576a10.714 10.714 0 0 1-5.024 6.547 10.766 10.766 0 0 1-5.374 1.447c-3.85 0-7.435-2.067-9.355-5.395a10.714 10.714 0 0 1-1.077-8.182 10.714 10.714 0 0 1 5.024-6.547 10.766 10.766 0 0 1 5.374-1.447c3.85 0 7.435 2.067 9.356 5.395a10.72 10.72 0 0 1 1.076 8.182z"/><path d="M382.282 142.263c-4.87-4.87-11.344-7.552-18.232-7.553-14.216 0-25.782 11.565-25.782 25.781 0 6.887 2.681 13.361 7.55 18.231 4.87 4.87 11.344 7.552 18.231 7.552 14.216 0 25.782-11.565 25.783-25.781.001-6.886-2.681-13.36-7.55-18.23zm-18.232 29.012l-.001 7.5.001-7.5a10.715 10.715 0 0 1-7.625-3.158 10.71 10.71 0 0 1-3.157-7.625c0-5.945 4.837-10.782 10.783-10.782a10.71 10.71 0 0 1 7.624 3.159 10.712 10.712 0 0 1 3.158 7.625c-.001 5.945-4.838 10.781-10.783 10.781z"/></g></svg>