<?xml version="1.0" encoding="UTF-8" standalone="no"?>
<svg width="32px" height="32px" viewBox="0 0 32 32" version="1.1" xmlns="http://www.w3.org/2000/svg" xmlns:xlink="http://www.w3.org/1999/xlink">
    <!-- Generator: Sketch 3.6.1 (26313) - http://www.bohemiancoding.com/sketch -->
    <title>DJLinesWhite</title>
    <desc>Created with Sketch.</desc>
    <defs></defs>
    <g id="Page-1" stroke="none" stroke-width="1" fill="none" fill-rule="evenodd">
        <g id="Artboard-1" transform="translate(-18.000000, -4.000000)" fill="#000000">
            <g id="DJLinesWhite" transform="translate(18.000000, 4.000000)">
                <g id="g4486" transform="translate(0.000000, 10.000000)">
                    <path d="M1.94000001,11.6240001 C1.05266667,11.6240001 0.333333335,10.9046667 0.333333335,10.0173334 L0.333333335,1.98333334 C0.333333335,1.09600001 1.05266667,0.376666669 1.94000001,0.376666669 C2.82733335,0.376666669 3.54666668,1.09600001 3.54666668,1.98333334 L3.54666668,10.0173334 C3.54666668,10.9040001 2.82733335,11.6240001 1.94000001,11.6240001 L1.94000001,11.6240001 Z" id="path4488"></path>
                </g>
                <g id="g4490" transform="translate(4.666667, 6.000000)">
                    <path d="M1.96000001,19.6413334 C1.07266667,19.6413334 0.353333335,18.9220001 0.353333335,18.0346668 L0.353333335,1.96533334 C0.353333335,1.07800001 1.07266667,0.358666668 1.96000001,0.358666668 C2.84733335,0.358666668 3.56666668,1.07800001 3.56666668,1.96533334 L3.56666668,18.0346668 C3.56733335,18.9220001 2.84733335,19.6413334 1.96000001,19.6413334 L1.96000001,19.6413334 Z" id="path4492"></path>
                </g>
                <g id="g4494" transform="translate(9.333333, 8.000000)">
                    <path d="M1.98000001,15.6320001 C1.09266667,15.6320001 0.373333335,14.9126667 0.373333335,14.0253334 L0.373333335,1.97466668 C0.373333335,1.08733334 1.09266667,0.368000002 1.98000001,0.368000002 C2.86733335,0.368000002 3.58733335,1.08733334 3.58733335,1.97466668 L3.58733335,14.0253334 C3.58666668,14.9126667 2.86733335,15.6320001 1.98000001,15.6320001 L1.98000001,15.6320001 Z" id="path4496"></path>
                </g>
                <g id="g4498" transform="translate(14.000000, 4.000000)">
                    <path d="M2.00000001,23.6500001 C1.11266667,23.6500001 0.393333335,22.9306668 0.393333335,22.0433334 L0.393333335,1.95733334 C0.393333335,1.07000001 1.11266667,0.350666668 2.00000001,0.350666668 C2.88733335,0.350666668 3.60666668,1.07000001 3.60666668,1.95733334 L3.60666668,22.0433334 C3.60666668,22.9306668 2.88733335,23.6500001 2.00000001,23.6500001 L2.00000001,23.6500001 Z" id="path4500"></path>
                </g>
                <g id="g4502" transform="translate(18.666667, 0.000000)">
                    <path d="M2.02000001,31.6666668 C1.13266667,31.6666668 0.412666669,30.9473335 0.412666669,30.0600002 L0.412666669,1.94000001 C0.412666669,1.05266667 1.13266667,0.333333335 2.02000001,0.333333335 C2.90733335,0.333333335 3.62666668,1.05266667 3.62666668,1.94000001 L3.62666668,30.0600002 C3.62666668,30.9473335 2.90733335,31.6666668 2.02000001,31.6666668 L2.02000001,31.6666668 Z" id="path4504"></path>
                </g>
                <g id="g4506" transform="translate(23.333333, 6.000000)">
                    <path d="M2.04000001,19.6413334 C1.15266667,19.6413334 0.433333336,18.9220001 0.433333336,18.0346668 L0.433333336,1.96533334 C0.433333336,1.07800001 1.15266667,0.358666668 2.04000001,0.358666668 C2.92733335,0.358666668 3.64666668,1.07800001 3.64666668,1.96533334 L3.64666668,18.0346668 C3.64666668,18.9220001 2.92733335,19.6413334 2.04000001,19.6413334 L2.04000001,19.6413334 Z" id="path4508"></path>
                </g>
                <g id="g4510" transform="translate(28.000000, 12.000000)">
                    <path d="M2.06000001,7.61533337 C1.17266667,7.61533337 0.453333336,6.89600003 0.453333336,6.0086667 L0.453333336,1.99200001 C0.453333336,1.10466667 1.17266667,0.385333335 2.06000001,0.385333335 C2.94733335,0.385333335 3.66666669,1.10466667 3.66666669,1.99200001 L3.66666669,6.0086667 C3.66666669,6.89600003 2.94733335,7.61533337 2.06000001,7.61533337 L2.06000001,7.61533337 Z" id="path4512"></path>
                </g>
            </g>
        </g>
    </g>
</svg>