<?xml version="1.0" encoding="UTF-8" standalone="no"?>
<svg width="25px" height="32px" viewBox="0 0 25 32" version="1.1" xmlns="http://www.w3.org/2000/svg" xmlns:xlink="http://www.w3.org/1999/xlink">
    <!-- Generator: Sketch 3.7 (28169) - http://www.bohemiancoding.com/sketch -->
    <title>GabeDropPin</title>
    <desc>Created with Sketch.</desc>
    <defs></defs>
    <g id="Page-1" stroke="none" stroke-width="1" fill="none" fill-rule="evenodd">
        <g id="GabeDropPin">
            <path d="M25,11.8100244 C25,5.28752805 19.4035594,0 12.5,0 C5.59644063,0 -1.13686838e-13,5.28752805 -1.13686838e-13,11.8100244 C-1.13686838e-13,18.3325208 6.98576069,26.7337475 12.5,31.9354239 C18.0330276,26.7337475 25,18.3325208 25,11.8100244 Z" id="Oval-1" fill="#000000"></path>
            <g id="whitedots" transform="translate(4.000000, 3.000000)">
                <g id="Page-1">
                    <g id="Artboard-1">
                        <g id="DOTSwhite" transform="translate(8.521922, 8.508086) rotate(43.000000) translate(-8.521922, -8.508086) translate(2.521922, 2.508086)">
                            <ellipse id="Oval-1" fill="#FFFFFF" cx="5.92392434" cy="5.96289753" rx="5.92392434" ry="5.96289753"></ellipse>
                            <ellipse id="Oval-2" fill="#000000" cx="5.92392434" cy="4.17402827" rx="0.592392434" ry="0.596289753"></ellipse>
                            <ellipse id="Oval-2" fill="#000000" cx="5.92392434" cy="5.96289753" rx="0.592392434" ry="0.596289753"></ellipse>
                            <ellipse id="Oval-2" fill="#000000" cx="5.92392434" cy="7.75176678" rx="0.592392434" ry="0.596289753"></ellipse>
                            <ellipse id="Oval-2" fill="#000000" cx="7.46414467" cy="5.96289753" rx="0.592392434" ry="0.596289753"></ellipse>
                            <ellipse id="Oval-2" fill="#000000" cx="7.46414467" cy="7.75176678" rx="0.592392434" ry="0.596289753"></ellipse>
                            <ellipse id="Oval-2" fill="#000000" cx="4.38370401" cy="5.96289753" rx="0.592392434" ry="0.596289753"></ellipse>
                            <ellipse id="Oval-2" fill="#000000" cx="4.38370401" cy="7.75176678" rx="0.592392434" ry="0.596289753"></ellipse>
                            <ellipse id="Oval-2" fill="#000000" cx="7.46414467" cy="4.17402827" rx="0.592392434" ry="0.596289753"></ellipse>
                            <ellipse id="Oval-2" fill="#000000" cx="4.38370401" cy="4.17402827" rx="0.592392434" ry="0.596289753"></ellipse>
                        </g>
                    </g>
                </g>
            </g>
        </g>
    </g>
</svg>